<svg width="56" height="29" viewBox="0 0 56 29" fill="none" xmlns="http://www.w3.org/2000/svg">
<path d="M6.54962 29H0L9.97971 0H17.8562L27.8218 29H21.2722L14.0309 6.62695H13.805L6.54962 29ZM6.14027 17.6011H21.6109V22.3872H6.14027V17.6011Z" fill="#E5E7EB"/>
<path d="M21.4557 29H14.906L24.8858 0H32.7622L42.7278 29H36.1782L28.9369 6.62695H28.7111L21.4557 29ZM21.0463 17.6011H36.517V22.3872H21.0463V17.6011Z" fill="#111827"/>
<path d="M33.2034 29V0H44.6087C46.7919 0 48.6552 0.391764 50.1985 1.17529C51.7512 1.94938 52.9322 3.04915 53.7415 4.47461C54.5602 5.89062 54.9696 7.5568 54.9696 9.47314C54.9696 11.3989 54.5555 13.0557 53.7274 14.4434C52.8993 15.8216 51.6995 16.8789 50.1279 17.6152C48.5658 18.3516 46.6743 18.7197 44.4535 18.7197H36.8169V13.792H43.4654C44.6323 13.792 45.6015 13.6315 46.3732 13.3105C47.1448 12.9896 47.7189 12.5081 48.0953 11.8662C48.4811 11.2243 48.674 10.4266 48.674 9.47314C48.674 8.51025 48.4811 7.6984 48.0953 7.0376C47.7189 6.37679 47.1401 5.87646 46.3591 5.53662C45.5874 5.18734 44.6134 5.0127 43.4371 5.0127H39.3154V29H33.2034ZM48.8152 15.8027L56 29H49.2528L42.2232 15.8027H48.8152Z" fill="#E5E7EB"/>
</svg>
