<svg width="7" height="11" viewBox="0 0 7 11" fill="none" xmlns="http://www.w3.org/2000/svg">
<path fill-rule="evenodd" clip-rule="evenodd" d="M3.85589 11L3.43971 10.9C3.43971 10.9 3.49052 9.40715 2.7292 9.30002C2.22165 8.88574 2.8104 -8.27136 4.63753 9.24288C4.63753 9.24288 4.00823 9.46429 3.89654 9.84288C3.77468 10.2143 3.85589 11 3.85589 11Z" fill="white"/>
<path fill-rule="evenodd" clip-rule="evenodd" d="M3.85589 11L3.43971 10.9C3.43971 10.9 3.49052 9.40715 2.7292 9.30002C2.22165 8.88574 2.8104 -8.27136 4.63753 9.24288C4.63753 9.24288 4.00823 9.46429 3.89654 9.84288C3.77468 10.2143 3.85589 11 3.85589 11Z" fill="#A6A385"/>
<path fill-rule="evenodd" clip-rule="evenodd" d="M4.07902 9.5571C4.07902 9.5571 7.72322 7.87139 6.87053 4.36422C6.04833 1.81426 4.10941 0.978551 3.89628 0.6571C3.66283 0.428541 3.43945 0.0285645 3.43945 0.0285645L3.59179 7.12135C3.59179 7.1285 3.27705 9.29279 4.07902 9.5571Z" fill="white"/>
<path fill-rule="evenodd" clip-rule="evenodd" d="M4.07902 9.5571C4.07902 9.5571 7.72322 7.87139 6.87053 4.36422C6.04833 1.81426 4.10941 0.978551 3.89628 0.6571C3.66283 0.428541 3.43945 0.0285645 3.43945 0.0285645L3.59179 7.12135C3.59179 7.1285 3.27705 9.29279 4.07902 9.5571Z" fill="#499D4A"/>
<path fill-rule="evenodd" clip-rule="evenodd" d="M3.22655 9.64997C3.22655 9.64997 -0.194362 8.00709 0.00869482 5.11429C0.201494 2.22143 2.61747 0.800021 3.08437 0.542859C3.38896 0.314301 3.39912 0.228558 3.41944 0C3.63257 0.321452 3.59201 4.80714 3.62241 5.3357C3.71377 7.3714 3.46 9.26429 3.22655 9.64997Z" fill="white"/>
<path fill-rule="evenodd" clip-rule="evenodd" d="M3.22655 9.64997C3.22655 9.64997 -0.194362 8.00709 0.00869482 5.11429C0.201494 2.22143 2.61747 0.800021 3.08437 0.542859C3.38896 0.314301 3.39912 0.228558 3.41944 0C3.63257 0.321452 3.59201 4.80714 3.62241 5.3357C3.71377 7.3714 3.46 9.26429 3.22655 9.64997Z" fill="#58AA50"/>
</svg>
