<svg width="13" height="11" viewBox="0 0 13 11" fill="none" xmlns="http://www.w3.org/2000/svg">
<g clip-path="url(#clip0_29_630)">
<path d="M10.6886 3.56167C10.5538 3.51757 10.414 3.47584 10.2701 3.43638C10.2938 3.34468 10.3155 3.25417 10.3348 3.1652C10.6516 1.70427 10.4444 0.527336 9.73717 0.13984C9.05899 -0.231719 7.94987 0.15569 6.82972 1.08185C6.722 1.17091 6.61399 1.2652 6.50602 1.36402C6.43407 1.29864 6.36225 1.23545 6.29061 1.17502C5.11666 0.18471 3.93995 -0.23262 3.23337 0.155998C2.55584 0.528634 2.35519 1.63506 2.64035 3.0196C2.66788 3.15333 2.70007 3.2899 2.73647 3.42875C2.56993 3.47366 2.40916 3.52155 2.25532 3.57248C0.878989 4.02837 0 4.74287 0 5.48398C0 6.24941 0.943596 7.01715 2.37715 7.48267C2.49028 7.51941 2.60767 7.55414 2.72865 7.58712C2.68938 7.7373 2.65523 7.88446 2.62656 8.028C2.35466 9.3885 2.56699 10.4688 3.24272 10.8391C3.94069 11.2215 5.11207 10.8284 6.2527 9.88115C6.34286 9.80627 6.43333 9.72686 6.52397 9.64363C6.64145 9.75111 6.75875 9.85283 6.87542 9.94824C7.98025 10.8515 9.07146 11.2163 9.74656 10.8449C10.4438 10.4614 10.6704 9.30096 10.3762 7.88903C10.3538 7.7812 10.3276 7.67103 10.2983 7.55891C10.3805 7.53581 10.4613 7.51196 10.54 7.48716C12.0303 7.01803 13 6.25964 13 5.48398C13 4.74018 12.0927 4.02088 10.6886 3.56167ZM10.3654 6.98633C10.2943 7.00869 10.2213 7.0303 10.147 7.05125C9.9825 6.5564 9.76045 6.03021 9.48872 5.48655C9.74802 4.95585 9.96149 4.43638 10.1214 3.94475C10.2544 3.98131 10.3835 4.01987 10.5078 4.06056C11.7108 4.45401 12.4446 5.03574 12.4446 5.48398C12.4446 5.96144 11.6522 6.58125 10.3654 6.98633ZM9.83144 7.9915C9.96153 8.61584 9.98011 9.18031 9.89394 9.62158C9.81651 10.0181 9.66081 10.2825 9.46828 10.3883C9.05859 10.6136 8.18247 10.3208 7.23761 9.54828C7.12929 9.45973 7.02018 9.36517 6.91073 9.2651C7.27704 8.88449 7.64313 8.44201 8.00043 7.95059C8.62889 7.89761 9.22263 7.81099 9.76107 7.69273C9.78759 7.79437 9.81115 7.89404 9.83144 7.9915ZM4.43199 10.3494C4.03172 10.4837 3.71292 10.4875 3.52022 10.382C3.11015 10.1573 2.93968 9.2899 3.17222 8.1264C3.19885 7.99315 3.23055 7.85627 3.26709 7.71637C3.79963 7.82824 4.38902 7.90875 5.01898 7.95727C5.37869 8.43814 5.75536 8.88013 6.13495 9.26715C6.05201 9.34321 5.9694 9.41563 5.88726 9.48387C5.38288 9.90274 4.87744 10.1999 4.43199 10.3494ZM2.55677 6.98341C1.92287 6.77757 1.39938 6.51004 1.04055 6.21811C0.718121 5.95577 0.555333 5.69532 0.555333 5.48398C0.555333 5.03425 1.26107 4.46061 2.43813 4.07072C2.58095 4.02341 2.73045 3.97882 2.88561 3.93694C3.04828 4.43968 3.26167 4.9653 3.5192 5.49682C3.25834 6.03623 3.04192 6.57023 2.87765 7.07886C2.76704 7.04866 2.65988 7.01687 2.55677 6.98341ZM3.18536 2.91827C2.94105 1.73204 3.1033 0.837185 3.51161 0.612636C3.94652 0.373424 4.90823 0.71449 5.92185 1.56957C5.98664 1.62423 6.05169 1.68143 6.11692 1.74061C5.73921 2.12593 5.36599 2.56461 5.00947 3.04264C4.39807 3.09648 3.81282 3.18296 3.27472 3.29878C3.24089 3.16949 3.21093 3.04246 3.18536 2.91827ZM8.79297 4.2338C8.66434 4.0227 8.53228 3.8166 8.39765 3.61612C8.81243 3.66594 9.20984 3.73207 9.58303 3.81299C9.47099 4.15415 9.33134 4.51084 9.16696 4.87651C9.04904 4.66381 8.92431 4.44935 8.79297 4.2338ZM6.5062 2.11769C6.76236 2.38135 7.01889 2.67572 7.2712 2.99511C7.01694 2.9837 6.75954 2.97776 6.5 2.97776C6.24292 2.97776 5.98741 2.98357 5.73472 2.99478C5.98729 2.67836 6.24604 2.38438 6.5062 2.11769ZM4.20478 4.23745C4.07629 4.44913 3.95388 4.66243 3.83781 4.87611C3.67609 4.51172 3.53773 4.1534 3.42472 3.80741C3.79563 3.72855 4.19115 3.66407 4.6033 3.6152C4.46677 3.81752 4.33363 4.02519 4.20478 4.23745ZM4.61517 7.3904C4.18935 7.34527 3.78787 7.28411 3.41706 7.20743C3.53188 6.85526 3.67329 6.48928 3.83843 6.11705C3.9548 6.33058 4.0777 6.54396 4.20698 6.75611C4.33867 6.97224 4.47513 7.18395 4.61517 7.3904ZM6.52157 8.88748C6.25835 8.61766 5.99581 8.3192 5.73939 7.99816C5.98831 8.00744 6.24208 8.01219 6.5 8.01219C6.76497 8.01219 7.02692 8.00652 7.28474 7.99561C7.03159 8.32243 6.77599 8.62135 6.52157 8.88748ZM9.17226 6.09807C9.34601 6.47434 9.49249 6.8384 9.60879 7.18456C9.23186 7.26626 8.8249 7.33206 8.39612 7.38095C8.53108 7.17777 8.66429 6.96813 8.79519 6.75248C8.92762 6.53431 9.05336 6.31581 9.17226 6.09807ZM8.31414 6.48889C8.11092 6.82365 7.9023 7.14321 7.6905 7.44486C7.30473 7.47106 6.9062 7.48456 6.5 7.48456C6.09545 7.48456 5.70193 7.47262 5.32299 7.44926C5.10266 7.14365 4.88949 6.82314 4.68757 6.49177C4.48619 6.1613 4.30088 5.82804 4.13293 5.49665C4.30084 5.16448 4.4857 4.83085 4.68593 4.50097L4.68588 4.50104C4.88665 4.17028 5.09794 3.85133 5.31624 3.54764C5.70286 3.51987 6.09931 3.50539 6.49998 3.50539C6.90245 3.50539 7.29943 3.51998 7.68594 3.54799C7.90091 3.84946 8.11076 4.16738 8.31231 4.49818C8.51615 4.83269 8.7034 5.16411 8.87274 5.48915C8.70391 5.81977 8.51708 6.15453 8.31414 6.48889ZM9.45977 0.596939C9.8951 0.835448 10.0644 1.79735 9.79088 3.05871C9.77343 3.13919 9.75378 3.22117 9.73245 3.30425C9.19311 3.18602 8.60744 3.09804 7.99425 3.04338C7.63704 2.5601 7.26688 2.12074 6.89532 1.74037C6.99522 1.64907 7.09497 1.56201 7.19431 1.47985C8.15406 0.686328 9.05107 0.373028 9.45977 0.596939ZM6.5 4.38109C7.14111 4.38109 7.66086 4.87486 7.66086 5.48398C7.66086 6.09308 7.14111 6.58687 6.5 6.58687C5.85889 6.58687 5.33914 6.09308 5.33914 5.48398C5.33914 4.87486 5.85889 4.38109 6.5 4.38109Z" fill="#00D8FF"/>
</g>
<defs>
<clipPath id="clip0_29_630">
<rect width="13" height="11" fill="white"/>
</clipPath>
</defs>
</svg>
