<svg width="10" height="11" viewBox="0 0 10 11" fill="none" xmlns="http://www.w3.org/2000/svg">
<g clip-path="url(#clip0_29_638)">
<path d="M5 10.9796C4.84472 10.9796 4.69979 10.9392 4.56522 10.8686L3.18841 10.0718C2.98137 9.96081 3.08489 9.92047 3.147 9.90029C3.4265 9.80951 3.47826 9.78934 3.76812 9.62795C3.79917 9.60777 3.84058 9.61786 3.87164 9.63803L4.92754 10.2533C4.96894 10.2735 5.0207 10.2735 5.05176 10.2533L9.18219 7.92326C9.2236 7.90309 9.24431 7.86274 9.24431 7.8123V3.16224C9.24431 3.11181 9.2236 3.07146 9.18219 3.05129L5.05176 0.7313C5.01035 0.711126 4.95859 0.711126 4.92754 0.7313L0.797101 3.05129C0.755694 3.07146 0.73499 3.1219 0.73499 3.16224V7.8123C0.73499 7.85265 0.755694 7.90309 0.797101 7.92326L1.92547 8.55873C2.53623 8.86134 2.91925 8.5083 2.91925 8.15526V3.56572C2.91925 3.5052 2.97101 3.44468 3.04348 3.44468H3.57143C3.63354 3.44468 3.69565 3.49511 3.69565 3.56572V8.15526C3.69565 8.95212 3.25052 9.41612 2.47412 9.41612C2.23602 9.41612 2.04969 9.41612 1.52174 9.16395L0.434783 8.55873C0.165631 8.40743 0 8.125 0 7.82239V3.17233C0 2.86972 0.165631 2.58729 0.434783 2.43599L4.56522 0.105912C4.82402 -0.0353041 5.17598 -0.0353041 5.43478 0.105912L9.56522 2.43599C9.83437 2.58729 10 2.86972 10 3.17233V7.82239C10 8.125 9.83437 8.40743 9.56522 8.55873L5.43478 10.8888C5.30021 10.9493 5.14493 10.9796 5 10.9796ZM6.27329 7.78204C4.4617 7.78204 4.08903 6.97509 4.08903 6.28918C4.08903 6.22866 4.14079 6.16814 4.21325 6.16814H4.75155C4.81366 6.16814 4.86542 6.20849 4.86542 6.26901C4.94824 6.80361 5.18634 7.06587 6.28364 7.06587C7.15321 7.06587 7.52588 6.87422 7.52588 6.42031C7.52588 6.15805 7.42236 5.9664 6.06625 5.83527C4.93789 5.72432 4.23395 5.48223 4.23395 4.60467C4.23395 3.78763 4.93789 3.30346 6.11801 3.30346C7.44306 3.30346 8.09524 3.74728 8.17805 4.71563C8.17805 4.74589 8.1677 4.77615 8.147 4.80641C8.12629 4.82658 8.09524 4.84676 8.06418 4.84676H7.52588C7.47412 4.84676 7.42236 4.80641 7.41201 4.75597C7.28778 4.20119 6.96687 4.01963 6.11801 4.01963C5.16563 4.01963 5.05176 4.34241 5.05176 4.5845C5.05176 4.87702 5.18634 4.9678 6.46998 5.12919C7.74327 5.29058 8.34369 5.52258 8.34369 6.39005C8.33333 7.2777 7.58799 7.78204 6.27329 7.78204Z" fill="#539E43"/>
</g>
<defs>
<clipPath id="clip0_29_638">
<rect width="10" height="11" fill="white"/>
</clipPath>
</defs>
</svg>
