<svg width="15" height="11" viewBox="0 0 15 11" fill="none" xmlns="http://www.w3.org/2000/svg">
<g clip-path="url(#clip0_32_824)">
<path d="M4.24145 3.99666C4.24145 4.22277 4.26132 4.4061 4.29609 4.54055C4.33582 4.67499 4.38549 4.82166 4.45503 4.98055C4.47986 5.02944 4.48979 5.07833 4.48979 5.1211C4.48979 5.18222 4.45999 5.24333 4.39542 5.30444L4.08251 5.5611C4.03781 5.59777 3.99311 5.6161 3.95337 5.6161C3.9037 5.6161 3.85403 5.58555 3.80436 5.53055C3.73483 5.43888 3.67523 5.3411 3.62556 5.24333C3.57589 5.13944 3.52622 5.02333 3.47158 4.88277C3.08417 5.44499 2.59741 5.7261 2.01132 5.7261C1.5941 5.7261 1.26132 5.57944 1.01794 5.2861C0.774563 4.99277 0.650391 4.60166 0.650391 4.11277C0.650391 3.59333 0.799397 3.17166 1.10238 2.85388C1.40536 2.5361 1.80768 2.37721 2.31926 2.37721C2.48814 2.37721 2.66198 2.39555 2.84575 2.4261C3.02953 2.45666 3.21827 2.50555 3.41695 2.56055V2.11444C3.41695 1.64999 3.33748 1.3261 3.1835 1.13666C3.02456 0.947215 2.75635 0.855548 2.3739 0.855548C2.20006 0.855548 2.02125 0.879992 1.83748 0.934992C1.6537 0.989992 1.47489 1.05721 1.30105 1.14277C1.22158 1.18555 1.16198 1.20999 1.12721 1.22221C1.09244 1.23444 1.06761 1.24055 1.04774 1.24055C0.978205 1.24055 0.943437 1.17944 0.943437 1.0511V0.751659C0.943437 0.653881 0.953371 0.580548 0.978205 0.53777C1.00304 0.494992 1.04774 0.452215 1.11728 0.409437C1.29112 0.299437 1.49973 0.20777 1.74311 0.134437C1.98648 0.0549924 2.24476 0.0183257 2.51794 0.0183257C3.109 0.0183257 3.54112 0.183326 3.81926 0.513326C4.09244 0.843326 4.23152 1.34444 4.23152 2.01666V3.99666H4.24145ZM2.22489 4.92555C2.3888 4.92555 2.55768 4.88888 2.73648 4.81555C2.91529 4.74222 3.07423 4.60777 3.20834 4.42444C3.28781 4.30833 3.34741 4.17999 3.37721 4.03333C3.40701 3.88666 3.42688 3.70944 3.42688 3.50166V3.24499C3.28284 3.20221 3.12887 3.16555 2.96993 3.1411C2.81099 3.11666 2.65701 3.10444 2.50304 3.10444C2.17026 3.10444 1.92688 3.18388 1.76297 3.34888C1.59907 3.51388 1.5196 3.7461 1.5196 4.05166C1.5196 4.33888 1.5792 4.55277 1.70337 4.69944C1.82258 4.85222 1.99642 4.92555 2.22489 4.92555ZM6.2133 5.58555C6.1239 5.58555 6.0643 5.56721 6.02456 5.52444C5.98483 5.48777 5.95006 5.40222 5.92026 5.2861L4.75304 0.562215C4.72324 0.439992 4.70834 0.360548 4.70834 0.31777C4.70834 0.219992 4.74807 0.164992 4.82754 0.164992H5.3143C5.40867 0.164992 5.47324 0.183326 5.50801 0.226104C5.54774 0.26277 5.57754 0.348326 5.60734 0.464437L6.44178 4.50999L7.21662 0.464437C7.24145 0.342215 7.27125 0.26277 7.31099 0.226104C7.35072 0.189437 7.42026 0.164992 7.50966 0.164992H7.90701C8.00138 0.164992 8.06595 0.183326 8.10569 0.226104C8.14542 0.26277 8.18019 0.348326 8.20006 0.464437L8.98483 4.55888L9.8441 0.464437C9.8739 0.342215 9.90867 0.26277 9.94344 0.226104C9.98317 0.189437 10.0477 0.164992 10.1371 0.164992H10.5991C10.6785 0.164992 10.7232 0.213881 10.7232 0.31777C10.7232 0.348326 10.7183 0.378881 10.7133 0.415548C10.7083 0.452215 10.6984 0.501104 10.6785 0.568326L9.48152 5.29221C9.45171 5.41444 9.41695 5.49388 9.37721 5.53055C9.33748 5.56721 9.27291 5.59166 9.18847 5.59166H8.76132C8.66695 5.59166 8.60238 5.57333 8.56264 5.53055C8.52291 5.48777 8.48814 5.40833 8.46827 5.2861L7.6984 1.34444L6.9335 5.27999C6.90867 5.40222 6.87887 5.48166 6.83913 5.52444C6.7994 5.56721 6.72986 5.58555 6.64046 5.58555H6.2133ZM12.5958 5.75055C12.3375 5.75055 12.0792 5.71388 11.8309 5.64055C11.5825 5.56722 11.3888 5.48777 11.2597 5.3961C11.1802 5.3411 11.1256 5.27999 11.1057 5.22499C11.0858 5.16999 11.0759 5.10888 11.0759 5.05388V4.74222C11.0759 4.61388 11.1156 4.55277 11.1901 4.55277C11.2199 4.55277 11.2497 4.55888 11.2795 4.5711C11.3093 4.58333 11.354 4.60777 11.4037 4.63222C11.5726 4.72388 11.7564 4.79721 11.9501 4.8461C12.1487 4.89499 12.3424 4.91944 12.5411 4.91944C12.854 4.91944 13.0974 4.85221 13.2663 4.71777C13.4352 4.58333 13.5246 4.38777 13.5246 4.13721C13.5246 3.9661 13.4799 3.82555 13.3905 3.70944C13.3011 3.59333 13.1322 3.48944 12.8888 3.39166L12.1686 3.11666C11.806 2.9761 11.5378 2.76833 11.3739 2.49333C11.21 2.22444 11.1256 1.92499 11.1256 1.60721C11.1256 1.35055 11.1703 1.12444 11.2597 0.928881C11.3491 0.733326 11.4683 0.562215 11.6173 0.42777C11.7663 0.287215 11.9352 0.183326 12.1338 0.109992C12.3325 0.0366591 12.5411 0.00610352 12.7597 0.00610352C12.8689 0.00610352 12.9832 0.0122146 13.0924 0.030548C13.2067 0.0488813 13.311 0.0733257 13.4153 0.0977702C13.5146 0.128326 13.609 0.158881 13.6984 0.195548C13.7878 0.232215 13.8573 0.268881 13.907 0.305548C13.9765 0.354437 14.0262 0.403326 14.056 0.458326C14.0858 0.507215 14.1007 0.574437 14.1007 0.659992V0.947215C14.1007 1.07555 14.061 1.14277 13.9865 1.14277C13.9467 1.14277 13.8822 1.11833 13.7977 1.06944C13.5146 0.910548 13.1967 0.831104 12.8441 0.831104C12.561 0.831104 12.3375 0.886104 12.1835 1.00221C12.0295 1.11833 11.9501 1.29555 11.9501 1.5461C11.9501 1.71721 11.9997 1.86388 12.0991 1.97999C12.1984 2.0961 12.3822 2.21221 12.6454 2.3161L13.3507 2.5911C13.7083 2.73166 13.9666 2.92721 14.1206 3.17777C14.2746 3.42833 14.3491 3.71555 14.3491 4.03333C14.3491 4.2961 14.3044 4.53444 14.2199 4.74222C14.1305 4.94999 14.0113 5.13333 13.8573 5.27999C13.7034 5.43277 13.5196 5.54277 13.306 5.62222C13.0825 5.70777 12.8491 5.75055 12.5958 5.75055Z" fill="#252F3E"/>
<path d="M13.5348 8.72056C11.9007 10.2056 9.52652 10.9939 7.48513 10.9939C4.6242 10.9939 2.04638 9.69222 0.0993629 7.52889C-0.0546106 7.35778 0.0844623 7.12556 0.268237 7.26C2.3742 8.76333 4.97188 9.67389 7.65897 9.67389C9.47188 9.67389 11.4636 9.20945 13.2964 8.25611C13.5696 8.10334 13.803 8.47611 13.5348 8.72056Z" fill="#FF9900"/>
<path d="M14.215 7.76723C14.0064 7.43723 12.8342 7.60834 12.3027 7.68779C12.1438 7.71223 12.119 7.54112 12.263 7.41279C13.1968 6.60612 14.7315 6.83834 14.9104 7.10723C15.0892 7.38223 14.8607 9.27056 13.9865 10.175C13.8524 10.3156 13.7233 10.2422 13.7829 10.0589C13.9815 9.4539 14.4236 8.09112 14.215 7.76723Z" fill="#FF9900"/>
</g>
<defs>
<clipPath id="clip0_32_824">
<rect width="15" height="11" fill="white"/>
</clipPath>
</defs>
</svg>
