<svg width="8" height="11" viewBox="0 0 8 11" fill="none" xmlns="http://www.w3.org/2000/svg">
<g clip-path="url(#clip0_32_798)">
<path d="M2.16557 0.000155447C2.11391 0.00187104 2.05829 0.0224246 1.99516 0.0760117C1.8406 0.0118619 1.69069 -0.0104409 1.55666 0.12018C1.34969 0.0912839 1.28244 0.150926 1.23147 0.220559C1.18604 0.21955 0.891504 0.170269 0.75641 0.387174C0.416973 0.343947 0.309692 0.602094 0.431254 0.84285C0.36191 0.958366 0.290067 1.0725 0.452192 1.29277C0.394848 1.41542 0.43041 1.5485 0.565504 1.70953C0.529848 1.882 0.599942 2.00364 0.72566 2.09846C0.702129 2.33444 0.926692 2.47166 0.993723 2.52053C1.01947 2.65802 1.07313 2.7878 1.3296 2.85952C1.37191 3.06445 1.52604 3.09983 1.67532 3.14282C1.18197 3.45153 0.75891 3.85766 0.761785 4.85422L0.689504 4.99298C0.123817 5.36328 -0.385121 6.5535 0.410754 7.52089C0.462723 7.82371 0.54991 8.04122 0.627535 8.28194C0.743629 9.25196 1.50135 9.70619 1.70122 9.75991C1.99407 10 2.30597 10.2279 2.72807 10.3875C3.12594 10.8292 3.557 10.9976 3.99041 10.9973C3.99679 10.9973 4.87407 10.8292 5.27197 10.3875C5.69404 10.2279 6.00594 10 6.29882 9.75991C6.49866 9.70619 7.25638 9.25196 7.37247 8.28194C7.4501 8.04122 7.53729 7.82371 7.58929 7.52089C8.3851 6.5534 7.87619 5.36314 7.3105 4.99284L7.23813 4.85408C7.241 3.85762 6.81794 3.45146 6.3246 3.14269C6.47385 3.0997 6.628 3.06431 6.67029 2.85938C6.92675 2.78763 6.98044 2.65788 7.00616 2.5204C7.07322 2.47152 7.29775 2.33431 7.27425 2.09833C7.39994 2.0035 7.47004 1.88183 7.43438 1.70939C7.5695 1.54836 7.60504 1.41529 7.54769 1.2926C7.70985 1.07247 7.63791 0.958333 7.56866 0.842816C7.69016 0.602061 7.58294 0.34388 7.24338 0.38714C7.10835 0.170235 6.81388 0.219483 6.76832 0.220492C6.71738 0.150892 6.65013 0.0912502 6.44316 0.120146C6.30913 -0.0104745 6.15925 0.0117946 6.00466 0.0759781C5.8211 -0.0799394 5.69963 0.0450301 5.56088 0.092293C5.33866 0.0141157 5.28782 0.121189 5.17863 0.164819C4.93625 0.109684 4.8626 0.229709 4.74641 0.356394L4.61125 0.353501C4.24569 0.585409 4.06407 1.05764 3.99969 1.30041C3.93529 1.0576 3.7541 0.585376 3.3886 0.353501L3.25344 0.356394C3.1371 0.229709 3.06347 0.109684 2.8211 0.164819C2.71188 0.121189 2.66122 0.0141157 2.43882 0.092293C2.34775 0.0612778 2.264 -0.00317483 2.16541 0.000121808L-0.34375 4.74311" fill="black"/>
<path d="M1.43791 1.02042C2.40778 1.55868 2.97162 1.9941 3.28053 2.36494C3.12234 3.04744 2.29709 3.07859 1.99534 3.05945C2.05712 3.02851 2.10869 2.9914 2.12697 2.93445C2.05125 2.87652 1.78278 2.92833 1.59534 2.815C1.66734 2.79892 1.70103 2.78328 1.73469 2.72609C1.55762 2.6653 1.36687 2.61289 1.25469 2.51218C1.31522 2.51299 1.37175 2.52678 1.45081 2.46774C1.29222 2.37574 1.12297 2.30281 0.991469 2.16216C1.07347 2.16001 1.16187 2.16129 1.18759 2.12883C1.04244 2.03201 0.919937 1.92437 0.818562 1.8066C0.933312 1.8215 0.981781 1.80868 1.00953 1.78715C0.899781 1.66615 0.760906 1.56399 0.694687 1.4149C0.779875 1.44652 0.857844 1.45863 0.914031 1.41215C0.87675 1.32159 0.717 1.26817 0.625 1.05655C0.714719 1.06593 0.809844 1.0776 0.828875 1.05655C0.78725 0.873952 0.715812 0.771286 0.64575 0.664919C0.837719 0.661858 1.12859 0.665726 1.11544 0.648267L0.996719 0.517714C1.18425 0.463353 1.37612 0.526426 1.51544 0.573252C1.57797 0.520136 1.51431 0.452958 1.438 0.384368C1.59737 0.407276 1.74137 0.446702 1.87156 0.501029C1.94109 0.433448 1.82641 0.365833 1.77091 0.298252C2.01712 0.348509 2.12144 0.419185 2.22509 0.489928C2.30031 0.412322 2.22941 0.346356 2.17866 0.278809C2.36431 0.352815 2.45994 0.448383 2.56059 0.542708C2.59472 0.493124 2.64731 0.45676 2.58381 0.337139C2.71562 0.418916 2.81491 0.515292 2.88834 0.623273C2.96991 0.567365 2.93694 0.490937 2.93737 0.420463C3.07437 0.54042 3.16131 0.668081 3.26772 0.792714C3.28916 0.775894 3.30791 0.718943 3.3245 0.628824C3.65128 0.970093 4.11306 1.82974 3.44319 2.17057C2.87309 1.66444 2.19222 1.29653 1.43769 1.02055L1.43791 1.02042Z" fill="#75A928"/>
<path d="M6.58438 1.02036C5.61463 1.55869 5.05079 1.99398 4.74191 2.36489C4.9001 3.04739 5.72532 3.07854 6.02707 3.0594C5.96529 3.02845 5.91372 2.99135 5.89547 2.9344C5.97119 2.87647 6.23966 2.92827 6.42707 2.81494C6.35507 2.79886 6.32141 2.78322 6.28772 2.72604C6.46482 2.66525 6.65557 2.61284 6.76772 2.51212C6.70719 2.51293 6.65066 2.52672 6.5716 2.46769C6.73022 2.37568 6.89947 2.30275 7.03097 2.16211C6.94894 2.15996 6.86054 2.16123 6.83485 2.12877C6.98 2.03196 7.1025 1.92431 7.20388 1.80654C7.0891 1.82144 7.04066 1.80863 7.01291 1.7871C7.12263 1.6661 7.26154 1.56394 7.32775 1.41485C7.24254 1.44647 7.16457 1.45858 7.10838 1.41209C7.14566 1.32153 7.30544 1.26811 7.39741 1.05649C7.30772 1.06588 7.21257 1.07755 7.19354 1.05649C7.23525 0.87383 7.30669 0.771164 7.37675 0.664797C7.18479 0.661735 6.89391 0.665604 6.90707 0.648145L7.02579 0.517558C6.83825 0.463231 6.64638 0.526304 6.50707 0.57313C6.44454 0.520014 6.50816 0.452836 6.58447 0.384246C6.42513 0.407121 6.2811 0.446579 6.15094 0.500907C6.08138 0.433326 6.1961 0.365711 6.2516 0.29813C6.00538 0.348387 5.90107 0.419063 5.79738 0.489806C5.72216 0.4122 5.7931 0.346234 5.84385 0.278687C5.65819 0.352693 5.56257 0.448261 5.46191 0.542586C5.42775 0.493002 5.37519 0.456638 5.43866 0.337017C5.30688 0.418794 5.2076 0.51517 5.13416 0.623151C5.0526 0.567243 5.08557 0.490781 5.08513 0.420341C4.94813 0.540298 4.86119 0.667925 4.75479 0.792592C4.73335 0.775772 4.7146 0.718821 4.698 0.628668C4.37122 0.969971 3.90944 1.82962 4.57932 2.17045C5.1491 1.66418 5.82994 1.29634 6.5845 1.02036H6.58438Z" fill="#75A928"/>
<path d="M5.18485 7.97029C5.18823 8.60718 4.67082 9.1262 4.02923 9.12953C3.3876 9.13289 2.86473 8.61932 2.86135 7.98243C2.86132 7.9784 2.86132 7.97436 2.86135 7.97029C2.85798 7.33343 3.37535 6.81442 4.01698 6.81105C4.6586 6.80769 5.18144 7.32126 5.18485 7.95815V7.97029Z" fill="#BC1142"/>
<path d="M3.35131 4.67604C3.83268 5.01556 3.91946 5.78509 3.54512 6.39483C3.17078 7.00461 2.47709 7.22374 1.99571 6.88425C1.51434 6.54473 1.42759 5.7752 1.8019 5.16546C2.17624 4.55568 2.86993 4.33656 3.35131 4.67604Z" fill="#BC1142"/>
<path d="M4.65098 4.61452C4.16963 4.95401 4.08285 5.72357 4.45716 6.33331C4.83151 6.94309 5.5252 7.16221 6.00657 6.82269C6.48795 6.48321 6.57473 5.71368 6.20038 5.1039C5.82607 4.49416 5.13238 4.27503 4.65098 4.61452Z" fill="#BC1142"/>
<path d="M0.945447 5.23107C1.46517 5.08111 1.12092 7.54554 0.69804 7.34334C0.232884 6.94061 0.0830715 5.76119 0.945447 5.23107Z" fill="#BC1142"/>
<path d="M6.95151 5.2003C6.43173 5.05037 6.77604 7.51491 7.19891 7.31271C7.66407 6.90995 7.81388 5.73039 6.95151 5.2003Z" fill="#BC1142"/>
<path d="M5.18579 3.36507C6.08269 3.20206 6.82901 3.77567 6.79888 4.82259C6.76938 5.22397 4.85535 3.42485 5.18579 3.36507Z" fill="#BC1142"/>
<path d="M2.70773 3.33431C1.81076 3.17127 1.06451 3.74501 1.09463 4.79186C1.12413 5.19321 3.03819 3.39409 2.70773 3.33431Z" fill="#BC1142"/>
<path d="M3.99563 3.09022C3.46032 3.07521 2.94657 3.51787 2.94532 3.77464C2.94385 4.08661 3.36857 4.40604 3.99928 4.41415C4.64335 4.4191 5.05435 4.15846 5.05641 3.8365C5.05878 3.47172 4.47063 3.0846 3.99563 3.09022Z" fill="#BC1142"/>
<path d="M4.02882 9.48774C4.49554 9.46581 5.12179 9.64954 5.12304 9.89333C5.13079 10.13 4.55507 10.6648 3.99788 10.6545C3.42082 10.6813 2.85498 10.1457 2.86238 9.96C2.85373 9.68779 3.56501 9.47526 4.02882 9.48774Z" fill="#BC1142"/>
<path d="M2.30504 8.0431C2.63732 8.47402 2.78882 9.2311 2.51151 9.4543C2.24916 9.62468 1.61207 9.55451 1.15926 8.85424C0.853851 8.26663 0.893195 7.6687 1.10763 7.49304C1.42829 7.28279 1.92373 7.56681 2.30507 8.0431H2.30504Z" fill="#BC1142"/>
<path d="M5.68567 7.90643C5.32614 8.35972 5.12595 9.1865 5.3882 9.45279C5.63898 9.65967 6.31217 9.63074 6.80942 8.88802C7.17048 8.38919 7.04951 7.55611 6.84326 7.3349C6.53689 7.07982 6.09704 7.40629 5.68567 7.9063V7.90643Z" fill="#BC1142"/>
</g>
<defs>
<clipPath id="clip0_32_798">
<rect width="8" height="11" fill="white"/>
</clipPath>
</defs>
</svg>
