<svg width="13" height="10" viewBox="0 0 13 10" fill="none" xmlns="http://www.w3.org/2000/svg">
<g clip-path="url(#clip0_35_896)">
<path d="M6.5 0C4.76667 0 3.68333 1.10823 3.25 3.32468C3.9 2.21645 4.65833 1.80087 5.525 2.07792C6.01948 2.236 6.37291 2.69471 6.76412 3.20249C7.40141 4.02966 8.13899 4.98701 9.75 4.98701C11.4833 4.98701 12.5667 3.87879 13 1.66234C12.35 2.77056 11.5917 3.18615 10.725 2.90909C10.2305 2.75101 9.87709 2.2923 9.48588 1.78452C8.84859 0.957353 8.11101 0 6.5 0ZM3.25 4.98701C1.51667 4.98701 0.433333 6.09524 0 8.31169C0.65 7.20346 1.40833 6.78788 2.275 7.06494C2.76948 7.22301 3.12291 7.68172 3.51412 8.18951C4.15141 9.01667 4.88899 9.97403 6.5 9.97403C8.23333 9.97403 9.31667 8.8658 9.75 6.64935C9.1 7.75758 8.34167 8.17316 7.475 7.8961C6.98052 7.73803 6.62709 7.27931 6.23588 6.77153C5.59859 5.94437 4.86101 4.98701 3.25 4.98701Z" fill="url(#paint0_linear_35_896)"/>
</g>
<defs>
<linearGradient id="paint0_linear_35_896" x1="-0.361111" y1="3.19169" x2="12.0714" y2="8.79751" gradientUnits="userSpaceOnUse">
<stop stop-color="#2298BD"/>
<stop offset="1" stop-color="#0ED7B5"/>
</linearGradient>
<clipPath id="clip0_35_896">
<rect width="13" height="10" fill="white"/>
</clipPath>
</defs>
</svg>
