<svg width="12" height="11" viewBox="0 0 12 11" fill="none" xmlns="http://www.w3.org/2000/svg">
<g clip-path="url(#clip0_32_794)">
<path d="M5.94924 0.00317383C2.91023 0.00317403 3.1 1.21599 3.1 1.21599L3.10339 2.47245H6.00345V2.8497H1.9515C1.9515 2.8497 0.00683594 2.64674 0.00683594 5.46862C0.00683572 8.29051 1.70418 8.19043 1.70418 8.19043H2.71717V6.88097C2.71717 6.88097 2.66257 5.31897 4.38741 5.31897H7.26375C7.26375 5.31897 8.87979 5.34301 8.87979 3.88168V1.46541C8.87979 1.46541 9.12515 0.00317383 5.94924 0.00317383ZM4.35014 0.848089C4.63868 0.848089 4.87188 1.0627 4.87188 1.32823C4.87188 1.59375 4.63868 1.80836 4.35014 1.80836C4.06161 1.80836 3.82841 1.59375 3.82841 1.32823C3.82841 1.0627 4.06161 0.848089 4.35014 0.848089Z" fill="url(#paint0_linear_32_794)"/>
<path d="M6.03553 10.9624C9.07454 10.9624 8.88477 9.74955 8.88477 9.74955L8.88138 8.49309H5.98132V8.11584H10.0333C10.0333 8.11584 11.9779 8.31879 11.9779 5.49691C11.9779 2.67503 10.2806 2.7751 10.2806 2.7751H9.2676V4.08456C9.2676 4.08456 9.3222 5.64656 7.59736 5.64656H4.72102C4.72102 5.64656 3.10498 5.62252 3.10498 7.08385V9.50012C3.10498 9.50012 2.85962 10.9624 6.03553 10.9624ZM7.63463 10.1174C7.34609 10.1174 7.11289 9.90283 7.11289 9.63731C7.11289 9.37178 7.34609 9.15717 7.63463 9.15717C7.92316 9.15717 8.15636 9.37178 8.15636 9.63731C8.15637 9.90283 7.92316 10.1174 7.63463 10.1174Z" fill="url(#paint1_linear_32_794)"/>
</g>
<defs>
<linearGradient id="paint0_linear_32_794" x1="1.15728" y1="0.988923" x2="6.60242" y2="6.84684" gradientUnits="userSpaceOnUse">
<stop stop-color="#387EB8"/>
<stop offset="1" stop-color="#366994"/>
</linearGradient>
<linearGradient id="paint1_linear_32_794" x1="4.7986" y1="4.45962" x2="10.6686" y2="10.4895" gradientUnits="userSpaceOnUse">
<stop stop-color="#FFE052"/>
<stop offset="1" stop-color="#FFC331"/>
</linearGradient>
<clipPath id="clip0_32_794">
<rect width="12" height="11" fill="white"/>
</clipPath>
</defs>
</svg>
